Coordinates
version=1
nRows=22
nColumns=24
inDegrees=yes

Units are S.I. units (second, meters, Newtons, ...)
Angles are in degrees.

endheader
time	pelvis_tilt	pelvis_list	pelvis_rotation	pelvis_tx	pelvis_ty	pelvis_tz	hip_flexion_r	hip_adduction_r	hip_rotation_r	knee_angle_r	ankle_angle_r	subtalar_angle_r	mtp_angle_r	hip_flexion_l	hip_adduction_l	hip_rotation_l	knee_angle_l	ankle_angle_l	subtalar_angle_l	mtp_angle_l	lumbar_extension	lumbar_bending	lumbar_rotation
      1.33500000	     15.23907253	     -0.45798590	     -1.99087085	     -0.76522444	      0.94022810	      0.00882303	    -30.79874574	      2.87531825	     -8.42987338	    -13.74249426	     26.12511828	     -1.74079218	     20.33025357	     -0.21953232	      2.78535727	    -14.78253704	      5.85318908	      5.61292053	     -5.47258231	     35.23137790	    -25.31459195	     -0.40300206	      2.15338167
      1.34000000	     15.27554456	     -0.26082989	     -2.23405601	     -0.75904694	      0.93977165	      0.00890923	    -31.06085741	      2.48370750	     -8.34557748	    -14.08655962	     26.03064746	     -1.57001718	     20.42417550	     -0.12898356	      2.95332937	    -14.76522191	      5.06382498	      5.49543420	     -5.83368940	     35.20951714	    -25.30308420	     -0.77051624	      2.24040372
      1.34500000	     15.30752497	     -0.05960467	     -2.46283219	     -0.75289686	      0.93936787	      0.00889464	    -31.26867400	      2.06709605	     -8.36796270	    -14.52835560	     25.96334293	     -1.17493567	     20.76117466	     -0.04939825	      3.13507874	    -14.65314885	      4.28882573	      5.11781348	     -6.47027992	     35.17631622	    -25.29200613	     -1.12887576	      2.30647861
      1.35000000	     15.29696797	      0.14944372	     -2.56085344	     -0.74669348	      0.93895234	      0.00871333	    -31.47241147	      1.72555858	     -8.43186836	    -14.86823293	     25.56724973	     -1.09879959	     22.39531474	      0.08170075	      3.31674979	    -14.23505368	      3.48410628	      4.68026215	     -7.40193127	     35.47891997	    -25.23179180	     -1.44709720	      2.25651085
      1.35500000	     15.32781788	      0.37727787	     -2.81266967	     -0.74048121	      0.93867217	      0.00874908	    -31.64054971	      1.27638512	     -8.32624498	    -15.35920297	     25.40215763	     -0.88668684	     22.56250226	      0.18293349	      3.51870365	    -14.26943271	      2.60414689	      4.45195585	     -7.70773140	     35.48186477	    -25.21302201	     -1.84937694	      2.33045877
      1.36000000	     15.30724323	      0.61770519	     -2.89046179	     -0.73431938	      0.93836876	      0.00840124	    -31.71577605	      0.87114634	     -8.51971217	    -15.93122051	     25.11168865	     -0.53511492	     23.94498760	      0.31972196	      3.75060038	    -13.81924225	      1.79313267	      3.84243833	     -8.70824779	     35.68768928	    -25.15317620	     -2.17871200	      2.23457673
      1.36500000	     15.25192006	      0.84334501	     -3.05021501	     -0.72813339	      0.93812273	      0.00821310	    -31.71467504	      0.44942716	     -8.50428256	    -16.54954543	     24.68247342	     -0.38766442	     25.74817699	      0.50082045	      3.95915197	    -13.63113444	      0.94496168	      3.34367071	     -9.38378026	     36.09251756	    -25.04925861	     -2.53125973	      2.23786178
      1.37000000	     15.20330778	      1.07222871	     -3.20084406	     -0.72195616	      0.93795770	      0.00795605	    -31.67247170	      0.01905816	     -8.46560044	    -17.25214181	     24.26226746	     -0.21791623	     26.94535236	      0.66834871	      4.17851307	    -13.45285841	      0.09806384	      2.90182073	     -9.98731393	     36.31269572	    -24.95792443	     -2.87528989	      2.21947651
      1.37500000	     15.16530308	      1.29210805	     -3.36792646	     -0.71576382	      0.93790202	      0.00773953	    -31.60807727	     -0.40718199	     -8.34660537	    -17.99513009	     23.67558574	     -0.22847145	     28.84327389	      0.79739171	      4.39259540	    -13.32140883	     -0.70292840	      2.41612718	    -10.58262205	     36.66125634	    -24.87394383	     -3.22195048	      2.24390310
      1.38000000	     15.03636105	      1.50887419	     -3.46014544	     -0.70964088	      0.93776720	      0.00736004	    -31.36374876	     -0.81587019	     -8.34439551	    -18.90405502	     23.26544325	      0.06037036	     29.42828187	      1.07753064	      4.59408914	    -13.15256552	     -1.61407396	      2.09253895	    -11.05292646	     36.67987258	    -24.70503800	     -3.52650455	      2.20329010
      1.38500000	     14.88134434	      1.74636750	     -3.46341185	     -0.70354033	      0.93766359	      0.00680171	    -31.04289445	     -1.19939917	     -8.37361999	    -19.88967322	     22.65140873	      0.05561263	     31.11675482	      1.34701202	      4.83731237	    -12.72119131	     -2.43858182	      1.67443182	    -11.82528784	     36.74128773	    -24.51706591	     -3.81172840	      2.04238854
      1.39000000	     14.72374206	      1.95268790	     -3.52717003	     -0.69745273	      0.93763137	      0.00631576	    -30.64689106	     -1.59432885	     -8.30248413	    -20.98398057	     21.94807213	      0.07979709	     33.15054008	      1.62344216	      5.04333974	    -12.53275551	     -3.29387579	      1.42601573	    -12.28414349	     36.83769768	    -24.32504875	     -4.08514309	      1.97727657
      1.39500000	     14.57012249	      2.15103851	     -3.58260911	     -0.69139045	      0.93767419	      0.00578662	    -30.19181411	     -1.98411837	     -8.20104121	    -22.17905441	     21.18922913	      0.07674735	     34.87388299	      1.86761529	      5.25324861	    -12.31729615	     -4.10005197	      1.19953010	    -12.80530590	     36.81541082	    -24.14299860	     -4.34451662	      1.91436235
      1.40000000	     14.38476083	      2.33543788	     -3.61128578	     -0.68536627	      0.93772410	      0.00518780	    -29.62930657	     -2.35612978	     -8.10206892	    -23.48814713	     20.34977346	      0.04342964	     36.71670098	      2.14245928	      5.45191252	    -12.10860634	     -4.90805008	      1.07785218	    -13.23866944	     36.73176255	    -23.93243236	     -4.57363480	      1.83592198
      1.40500000	     14.29982460	      2.52086563	     -3.73163273	     -0.67927776	      0.93798598	      0.00467994	    -29.12065834	     -2.78160045	     -7.89965040	    -24.84908576	     19.29409368	     -0.10533277	     39.53919506	      2.21565145	      5.67637687	    -12.00103972	     -5.54986624	      0.99246725	    -13.64594677	     36.48440755	    -23.81660578	     -4.83754429	      1.86664561
      1.41000000	     14.03753884	      2.67155092	     -3.77680668	     -0.67334335	      0.93801180	      0.00403441	    -28.29966101	     -3.14844549	     -7.72817303	    -26.44427863	     18.42807706	      0.01551474	     40.21540406	      2.54675661	      5.84467321	    -11.85604355	     -6.32319671	      1.11420675	    -13.94165298	     36.38883965	    -23.53022576	     -5.02376562	      1.83969897
      1.41500000	     13.85659577	      2.85960507	     -3.79294020	     -0.66739968	      0.93819148	      0.00332536	    -27.53946553	     -3.53476671	     -7.58727633	    -28.03197600	     17.20097981	     -0.32113952	     43.55570501	      2.72674353	      6.08362533	    -11.60735305	     -6.97227253	      1.17312573	    -14.39341696	     35.80755183	    -23.33270276	     -5.23961508	      1.75996855
      1.42000000	     13.54974451	      2.99054666	     -3.86156184	     -0.66154459	      0.93822535	      0.00267585	    -26.52299671	     -3.89389706	     -7.32036332	    -29.82628274	     16.13771408	     -0.27955321	     44.20640417	      3.04537432	      6.24274398	    -11.50985966	     -7.63476616	      1.41667237	    -14.60700164	     35.66257775	    -23.00078182	     -5.40448579	      1.77430917
      1.42500000	     13.31968123	      3.16053724	     -3.88610147	     -0.65567842	      0.93840103	      0.00194576	    -25.57063592	     -4.27224324	     -7.13657775	    -31.58948446	     14.71175244	     -0.65442259	     47.54253791	      3.22564209	      6.47076471	    -11.30512435	     -8.19316181	      1.63745683	    -14.87563402	     34.73446501	    -22.75398341	     -5.59610543	      1.73366033
      1.43000000	     13.02516045	      3.30068763	     -4.00213796	     -0.64992923	      0.93846418	      0.00135247	    -24.42685525	     -4.65309814	     -6.80100050	    -33.54587378	     13.54198742	     -0.74090496	     47.97251307	      3.46533847	      6.65331540	    -11.27027828	     -8.72432938	      1.96955763	    -15.07834101	     34.58012261	    -22.43745906	     -5.78365386	      1.80457043
      1.43500000	     12.71956114	      3.45289930	     -4.00586684	     -0.64419394	      0.93855950	      0.00058345	    -23.28005806	     -4.99008929	     -6.55799484	    -35.42814892	     11.97569134	     -1.13852758	     50.88687510	      3.70307032	      6.86439237	    -11.05752196	     -9.24359172	      2.35694967	    -15.24205951	     33.33176313	    -22.12042051	     -5.93896406	      1.74942654
      1.44000000	     12.39192697	      3.58834393	     -4.12855543	     -0.63853499	      0.93861185	      0.00002300	    -22.00849363	     -5.33758580	     -6.14640281	    -37.44085239	     10.61052183	     -1.33633083	     51.19916354	      3.93123982	      7.04453209	    -11.04920796	     -9.68512492	      2.76569439	    -15.39623459	     33.13434826	    -21.77170474	     -6.11857208	      1.81526005
